<svg width="374" height="250" viewBox="0 0 374 250" fill="none" xmlns="http://www.w3.org/2000/svg">
<g filter="url(#filter0_d_204_1926)">
<rect x="110" y="30" width="234" height="110" rx="5" fill="white"/>
<rect x="110.5" y="30.5" width="233" height="109" rx="4.5" stroke="#F9F9F9"/>
</g>
<path d="M223.092 92.126C221.904 92.126 220.812 91.85 219.816 91.298C218.832 90.746 218.046 89.978 217.458 88.994C216.882 87.998 216.594 86.882 216.594 85.646C216.594 84.41 216.882 83.3 217.458 82.316C218.046 81.332 218.832 80.564 219.816 80.012C220.812 79.46 221.904 79.184 223.092 79.184C224.28 79.184 225.366 79.46 226.35 80.012C227.346 80.564 228.126 81.332 228.69 82.316C229.266 83.3 229.554 84.41 229.554 85.646C229.554 86.882 229.266 87.998 228.69 88.994C228.114 89.978 227.334 90.746 226.35 91.298C225.366 91.85 224.28 92.126 223.092 92.126ZM223.092 89.318C224.1 89.318 224.904 88.982 225.504 88.31C226.116 87.638 226.422 86.75 226.422 85.646C226.422 84.53 226.116 83.642 225.504 82.982C224.904 82.31 224.1 81.974 223.092 81.974C222.072 81.974 221.256 82.304 220.644 82.964C220.044 83.624 219.744 84.518 219.744 85.646C219.744 86.762 220.044 87.656 220.644 88.328C221.256 88.988 222.072 89.318 223.092 89.318ZM246.944 89.624H250.976V92H243.866V79.364H246.944V89.624ZM268.123 89.624H272.155V92H265.045V79.364H268.123V89.624ZM294.089 89.768H289.373L288.617 92H285.395L289.967 79.364H293.531L298.103 92H294.845L294.089 89.768ZM293.297 87.392L291.731 82.766L290.183 87.392H293.297Z" fill="#263640"/>
<path fill-rule="evenodd" clip-rule="evenodd" d="M179.001 89.8428L192.911 103.999L179.001 96.9205L165.089 103.999L179.001 89.8428ZM178.999 67L202 104L179 80.5923L156 103.999L178.999 67Z" fill="#263640"/>
<defs>
<filter id="filter0_d_204_1926" x="0" y="0" width="374" height="250" filterUnits="userSpaceOnUse" color-interpolation-filters="sRGB">
<feFlood flood-opacity="0" result="BackgroundImageFix"/>
<feColorMatrix in="SourceAlpha" type="matrix" values="0 0 0 0 0 0 0 0 0 0 0 0 0 0 0 0 0 0 127 0" result="hardAlpha"/>
<feOffset dx="-40" dy="40"/>
<feGaussianBlur stdDeviation="35"/>
<feColorMatrix type="matrix" values="0 0 0 0 0.0980392 0 0 0 0 0.0980392 0 0 0 0 0.0980392 0 0 0 0.04 0"/>
<feBlend mode="normal" in2="BackgroundImageFix" result="effect1_dropShadow_204_1926"/>
<feBlend mode="normal" in="SourceGraphic" in2="effect1_dropShadow_204_1926" result="shape"/>
</filter>
</defs>
</svg>
